<svg width="1024" height="768" viewBox="0 0 1024 768" fill="none" xmlns="http://www.w3.org/2000/svg">
<g style="mix-blend-mode:color-dodge">
<rect width="1024" height="768" fill="white"/>
</g>
<path d="M452.953 254.25L519.891 421.312L586.828 254.25H621.844V459H594.844V379.266L597.375 293.203L530.156 459H509.484L442.406 293.625L445.078 379.266V459H418.078V254.25H452.953ZM669.516 459V254.25H727.312C745.125 254.25 760.875 258.188 774.562 266.062C788.25 273.938 798.797 285.141 806.203 299.672C813.703 314.203 817.5 330.891 817.594 349.734V362.812C817.594 382.125 813.844 399.047 806.344 413.578C798.938 428.109 788.297 439.266 774.422 447.047C760.641 454.828 744.562 458.812 726.188 459H669.516ZM696.516 276.469V436.922H724.922C745.734 436.922 761.906 430.453 773.438 417.516C785.062 404.578 790.875 386.156 790.875 362.25V350.297C790.875 327.047 785.391 309 774.422 296.156C763.547 283.219 748.078 276.656 728.016 276.469H696.516Z" fill="black"/>
<path d="M372.234 459V254.25H314.438C296.625 254.25 280.875 258.188 267.188 266.062C253.5 273.938 242.953 285.141 235.547 299.672C228.047 314.203 224.25 330.891 224.156 349.734V362.812C224.156 382.125 227.906 399.047 235.406 413.578C242.812 428.109 253.453 439.266 267.328 447.047C281.109 454.828 297.188 458.812 315.562 459H372.234ZM345.234 276.469V436.922H316.828C296.016 436.922 279.844 430.453 268.312 417.516C256.688 404.578 250.875 386.156 250.875 362.25V350.297C250.875 327.047 256.359 309 267.328 296.156C278.203 283.219 293.672 276.656 313.734 276.469H345.234Z" fill="black"/>
<rect x="296" y="368" width="75" height="32" fill="black"/>
<rect x="330" y="270" width="41" height="31" fill="black"/>
<rect x="330" y="301" width="50" height="67" fill="white"/>
<rect x="420" y="431" width="45" height="28" fill="black"/>
<rect x="576" y="431" width="45" height="28" fill="black"/>
<path d="M597.744 293.196L558.837 485.023L515.535 470.828L597.744 293.196Z" fill="white"/>
<path d="M442.477 293.352L525.099 470.849L480.971 485.315L442.477 293.352Z" fill="white"/>
<path d="M453.119 254.364L557.865 375.771L505.697 405.846L453.119 254.364Z" fill="black"/>
<path d="M586.99 254.362L534.423 405.848L482.253 375.776L586.99 254.362Z" fill="black"/>
<path d="M520.5 431L507.943 392.75H533.057L520.5 431Z" fill="black"/>
<rect x="161" y="417.242" width="727" height="28" transform="rotate(-10 161 417.242)" fill="white"/>
<path d="M311.554 408.478C311.128 409.394 310.44 410.146 309.488 410.734C308.543 411.313 307.394 411.722 306.039 411.961C304.67 412.202 303.398 412.097 302.224 411.646C301.048 411.187 300.063 410.417 299.27 409.335C298.484 408.252 297.945 406.931 297.655 405.371L297.396 403.906C296.95 401.374 297.192 399.309 298.124 397.709C299.063 396.107 300.602 395.118 302.741 394.741C304.495 394.431 305.987 394.633 307.215 395.344C308.442 396.048 309.319 397.202 309.848 398.807L307.632 399.197C306.825 397.047 305.306 396.169 303.074 396.562C301.589 396.824 300.555 397.546 299.97 398.728C299.391 399.901 299.272 401.477 299.613 403.455L299.855 404.829C300.188 406.714 300.883 408.138 301.942 409.102C302.999 410.058 304.262 410.406 305.732 410.147C306.562 410 307.273 409.78 307.864 409.485C308.455 409.191 308.915 408.788 309.246 408.278L308.58 404.504L304.691 405.19L304.373 403.389L310.467 402.315L311.554 408.478ZM319.484 398.452C319.151 398.455 318.796 398.49 318.419 398.557C317.019 398.804 316.174 399.567 315.884 400.848L317.447 409.711L315.312 410.088L313.11 397.601L315.188 397.234L315.477 398.671C315.98 397.432 316.874 396.699 318.159 396.473C318.575 396.399 318.899 396.398 319.134 396.467L319.484 398.452ZM328.313 408.033C326.62 408.332 325.146 408.021 323.888 407.1C322.63 406.172 321.837 404.777 321.508 402.915L321.439 402.522C321.221 401.284 321.261 400.138 321.559 399.086C321.864 398.025 322.391 397.146 323.141 396.451C323.897 395.746 324.772 395.307 325.764 395.132C327.388 394.845 328.744 395.157 329.833 396.068C330.921 396.979 331.641 398.431 331.993 400.423L332.149 401.312L323.69 402.804C323.938 404.029 324.471 404.962 325.29 405.603C326.116 406.235 327.059 406.458 328.121 406.27C328.875 406.137 329.487 405.871 329.956 405.471C330.424 405.071 330.81 404.582 331.113 404.005L332.596 404.791C331.834 406.584 330.406 407.664 328.313 408.033ZM326.074 396.886C325.212 397.038 324.544 397.481 324.071 398.215C323.596 398.941 323.389 399.882 323.45 401.037L329.705 399.934L329.677 399.773C329.424 398.699 328.984 397.912 328.356 397.411C327.727 396.904 326.966 396.728 326.074 396.886ZM343.333 405.147C343.166 404.922 342.989 404.502 342.801 403.884C341.99 405.09 340.896 405.815 339.519 406.057C338.288 406.275 337.215 406.107 336.301 405.554C335.393 404.992 334.844 404.177 334.656 403.107C334.426 401.807 334.741 400.712 335.6 399.823C336.465 398.925 337.793 398.318 339.586 398.002L341.663 397.635L341.49 396.654C341.359 395.908 341.031 395.355 340.508 394.995C339.983 394.628 339.286 394.52 338.416 394.674C337.654 394.808 337.05 395.113 336.602 395.589C336.155 396.064 335.979 396.575 336.075 397.121L333.929 397.5C333.819 396.877 333.932 396.238 334.269 395.583C334.612 394.92 335.131 394.353 335.825 393.881C336.527 393.408 337.332 393.092 338.24 392.932C339.679 392.678 340.87 392.841 341.813 393.42C342.754 393.992 343.352 394.906 343.605 396.162L344.618 401.91C344.821 403.056 345.128 403.942 345.539 404.568L345.572 404.752L343.333 405.147ZM339.503 404.144C340.172 404.026 340.777 403.741 341.316 403.289C341.855 402.837 342.21 402.311 342.382 401.709L341.93 399.147L340.257 399.442C337.641 399.903 336.468 400.9 336.738 402.431C336.856 403.1 337.171 403.584 337.684 403.882C338.196 404.18 338.803 404.268 339.503 404.144ZM348.642 388.218L349.175 391.242L351.506 390.831L351.797 392.481L349.466 392.892L350.831 400.636C350.92 401.136 351.09 401.494 351.343 401.712C351.594 401.921 351.969 401.982 352.469 401.894C352.716 401.85 353.046 401.745 353.461 401.576L353.766 403.307C353.231 403.56 352.699 403.734 352.168 403.827C351.214 403.995 350.443 403.834 349.857 403.342C349.271 402.851 348.884 402.074 348.696 401.012L347.331 393.268L345.058 393.669L344.767 392.019L347.04 391.618L346.507 388.594L348.642 388.218ZM484.998 367.292L485.3 368.667C486.025 367.429 487.165 366.672 488.719 366.398C490.466 366.09 491.773 366.55 492.639 367.777C492.949 367.104 493.402 366.524 493.999 366.038C494.603 365.551 495.359 365.227 496.267 365.067C499.006 364.584 500.654 365.789 501.212 368.682L502.687 377.049L500.552 377.425L499.099 369.185C498.942 368.292 498.621 367.663 498.136 367.296C497.649 366.922 496.925 366.82 495.963 366.989C495.171 367.129 494.555 367.483 494.116 368.053C493.676 368.614 493.484 369.302 493.54 370.118L495.001 378.404L492.854 378.782L491.412 370.6C491.092 368.784 490.043 368.033 488.266 368.346C486.865 368.593 486.013 369.358 485.707 370.642L487.315 379.759L485.18 380.136L482.978 367.648L484.998 367.292ZM504.232 370.22C504.016 368.996 504.061 367.854 504.365 366.793C504.678 365.73 505.214 364.858 505.975 364.177C506.743 363.494 507.677 363.055 508.777 362.861C510.477 362.562 511.955 362.908 513.208 363.901C514.47 364.892 515.273 366.365 515.618 368.319L515.644 368.469C515.859 369.685 515.817 370.819 515.518 371.871C515.226 372.914 514.693 373.781 513.918 374.473C513.152 375.164 512.207 375.608 511.083 375.806C509.391 376.105 507.914 375.758 506.652 374.767C505.398 373.774 504.6 372.308 504.258 370.37L504.232 370.22ZM506.423 370.095C506.667 371.48 507.183 372.535 507.969 373.261C508.763 373.986 509.699 374.253 510.776 374.063C511.861 373.872 512.648 373.297 513.137 372.338C513.625 371.371 513.734 370.123 513.464 368.592C513.223 367.222 512.701 366.172 511.897 365.441C511.101 364.701 510.164 364.426 509.086 364.616C508.032 364.801 507.256 365.371 506.758 366.323C506.259 367.276 506.148 368.533 506.423 370.095ZM517.76 367.846C517.422 365.93 517.604 364.312 518.307 362.99C519.009 361.66 520.095 360.866 521.564 360.607C523.026 360.349 524.272 360.645 525.302 361.495L524.155 354.986L526.29 354.609L529.415 372.336L527.454 372.682L527.114 371.361C526.444 372.558 525.348 373.291 523.824 373.559C522.378 373.815 521.092 373.43 519.968 372.407C518.851 371.382 518.125 369.916 517.788 368.008L517.76 367.846ZM519.937 367.712C520.187 369.128 520.675 370.184 521.401 370.881C522.126 371.578 523.005 371.836 524.036 371.654C525.39 371.415 526.271 370.633 526.68 369.308L525.669 363.572C524.823 362.507 523.738 362.092 522.415 362.325C521.368 362.51 520.624 363.057 520.182 363.968C519.739 364.879 519.658 366.127 519.937 367.712ZM537.962 371.067C536.269 371.365 534.794 371.054 533.537 370.133C532.279 369.205 531.485 367.81 531.157 365.948L531.088 365.556C530.869 364.317 530.909 363.171 531.208 362.119C531.512 361.058 532.04 360.18 532.79 359.484C533.546 358.78 534.421 358.34 535.413 358.165C537.036 357.879 538.393 358.191 539.481 359.101C540.57 360.012 541.29 361.464 541.641 363.457L541.798 364.345L533.339 365.837C533.587 367.062 534.12 367.996 534.939 368.637C535.765 369.269 536.708 369.491 537.77 369.304C538.524 369.171 539.135 368.904 539.604 368.504C540.073 368.104 540.459 367.616 540.762 367.039L542.245 367.824C541.482 369.617 540.054 370.698 537.962 371.067ZM535.722 359.919C534.861 360.071 534.193 360.514 533.72 361.248C533.245 361.974 533.038 362.915 533.099 364.07L539.354 362.968L539.325 362.806C539.072 361.732 538.632 360.945 538.005 360.445C537.376 359.937 536.615 359.762 535.722 359.919ZM549.444 357.904C549.112 357.907 548.757 357.942 548.38 358.008C546.979 358.255 546.134 359.019 545.845 360.3L547.407 369.163L545.272 369.54L543.071 357.053L545.148 356.686L545.437 358.123C545.94 356.884 546.835 356.151 548.119 355.924C548.535 355.851 548.86 355.849 549.094 355.919L549.444 357.904ZM553.1 355.284L553.445 356.842C554.188 355.473 555.328 354.653 556.867 354.382C559.506 353.917 561.1 355.171 561.648 358.144L563.103 366.396L560.968 366.772L559.511 358.509C559.344 357.61 559.019 356.981 558.536 356.622C558.059 356.262 557.394 356.157 556.54 356.308C555.848 356.43 555.273 356.722 554.815 357.183C554.357 357.645 554.034 358.201 553.848 358.853L555.417 367.751L553.282 368.127L551.08 355.64L553.1 355.284ZM699.526 335.796C699.188 333.88 699.371 332.261 700.074 330.939C700.775 329.61 701.861 328.816 703.33 328.556C704.792 328.299 706.038 328.595 707.069 329.444L705.921 322.935L708.056 322.559L711.182 340.285L709.22 340.631L708.88 339.311C708.21 340.508 707.114 341.241 705.591 341.509C704.144 341.764 702.859 341.38 701.734 340.357C700.617 339.332 699.891 337.865 699.554 335.957L699.526 335.796ZM701.704 335.662C701.953 337.077 702.441 338.134 703.167 338.831C703.893 339.528 704.771 339.785 705.802 339.604C707.156 339.365 708.038 338.583 708.446 337.257L707.435 331.522C706.589 330.457 705.504 330.041 704.181 330.275C703.134 330.459 702.39 331.007 701.948 331.918C701.506 332.829 701.424 334.077 701.704 335.662ZM719.728 339.016C718.035 339.315 716.56 339.004 715.303 338.083C714.045 337.155 713.252 335.759 712.923 333.898L712.854 333.505C712.636 332.266 712.676 331.121 712.974 330.069C713.279 329.008 713.806 328.129 714.556 327.434C715.312 326.729 716.187 326.29 717.179 326.114C718.803 325.828 720.159 326.14 721.248 327.051C722.336 327.962 723.056 329.414 723.408 331.406L723.564 332.295L715.105 333.787C715.353 335.012 715.886 335.945 716.705 336.586C717.531 337.218 718.474 337.441 719.536 337.253C720.29 337.12 720.902 336.854 721.37 336.454C721.839 336.054 722.225 335.565 722.528 334.988L724.011 335.774C723.248 337.567 721.821 338.647 719.728 339.016ZM717.489 327.869C716.627 328.021 715.959 328.464 715.486 329.198C715.011 329.924 714.804 330.865 714.865 332.02L721.12 330.917L721.092 330.756C720.839 329.682 720.398 328.895 719.771 328.394C719.142 327.887 718.381 327.711 717.489 327.869ZM733.725 332.895C733.624 332.318 733.326 331.91 732.831 331.672C732.344 331.425 731.537 331.282 730.411 331.242C729.294 331.201 728.387 331.076 727.691 330.865C727.003 330.653 726.466 330.351 726.08 329.959C725.701 329.566 725.457 329.062 725.349 328.446C725.169 327.423 725.447 326.481 726.184 325.622C726.928 324.76 727.974 324.211 729.32 323.974C730.736 323.724 731.947 323.887 732.953 324.464C733.966 325.039 734.573 325.895 734.774 327.034L732.628 327.413C732.525 326.828 732.186 326.368 731.611 326.033C731.044 325.697 730.383 325.595 729.629 325.728C728.852 325.865 728.274 326.141 727.896 326.557C727.517 326.973 727.375 327.454 727.472 328C727.563 328.516 727.835 328.868 728.289 329.058C728.743 329.248 729.522 329.368 730.625 329.42C731.737 329.47 732.653 329.602 733.373 329.816C734.093 330.03 734.652 330.344 735.05 330.758C735.455 331.162 735.716 331.699 735.834 332.369C736.031 333.484 735.742 334.459 734.969 335.294C734.195 336.12 733.096 336.659 731.673 336.91C730.672 337.087 729.756 337.066 728.925 336.847C728.093 336.629 727.402 336.243 726.852 335.69C726.309 335.127 725.972 334.476 725.842 333.738L727.977 333.361C728.141 334.07 728.526 334.589 729.132 334.919C729.744 335.239 730.488 335.322 731.365 335.168C732.173 335.025 732.791 334.75 733.219 334.341C733.653 333.923 733.822 333.441 733.725 332.895ZM741.545 334.931L739.41 335.308L737.209 322.821L739.344 322.444L741.545 334.931ZM736.451 319.539C736.39 319.193 736.443 318.882 736.608 318.607C736.782 318.331 737.076 318.156 737.492 318.082C737.907 318.009 738.244 318.073 738.501 318.273C738.759 318.474 738.918 318.747 738.979 319.093C739.04 319.44 738.983 319.747 738.808 320.016C738.634 320.285 738.338 320.456 737.923 320.529C737.508 320.602 737.172 320.543 736.916 320.35C736.667 320.156 736.512 319.885 736.451 319.539ZM743.346 328.069C743.003 326.123 743.18 324.497 743.878 323.192C744.575 321.879 745.666 321.092 747.151 320.83C748.674 320.561 749.958 320.89 751.002 321.817L750.861 320.413L752.812 320.07L754.96 332.257C755.245 333.872 754.989 335.23 754.191 336.331C753.402 337.43 752.199 338.122 750.583 338.407C749.683 338.566 748.768 338.529 747.839 338.296C746.909 338.063 746.158 337.652 745.586 337.063L746.468 335.586C747.583 336.556 748.802 336.924 750.126 336.691C751.164 336.508 751.921 336.073 752.395 335.386C752.876 334.699 753.024 333.824 752.836 332.762L752.647 331.689C751.967 332.824 750.888 333.522 749.411 333.783C747.949 334.04 746.66 333.661 745.545 332.644C744.437 331.625 743.704 330.1 743.346 328.069ZM745.535 327.933C745.784 329.341 746.267 330.398 746.987 331.104C747.705 331.803 748.583 332.06 749.622 331.877C750.968 331.64 751.849 330.854 752.264 329.519L751.259 323.818C750.395 322.741 749.309 322.317 748.001 322.548C746.962 322.731 746.222 323.278 745.779 324.189C745.337 325.1 745.256 326.348 745.535 327.933ZM758.063 319.144L758.409 320.701C759.151 319.333 760.292 318.513 761.83 318.241C764.469 317.776 766.063 319.03 766.611 322.003L768.066 330.255L765.931 330.632L764.474 322.368C764.307 321.47 763.982 320.841 763.499 320.482C763.023 320.121 762.358 320.017 761.504 320.167C760.811 320.289 760.236 320.581 759.778 321.043C759.32 321.504 758.997 322.061 758.811 322.712L760.38 331.61L758.245 331.987L756.043 319.5L758.063 319.144Z" fill="black"/>
<circle cx="644" cy="237" r="10" fill="#4BA6F9"/>
<circle cx="390" cy="509" r="10" fill="#4BA6F9"/>
<circle cx="420" cy="479" r="10" fill="#FBF56F"/>
<circle cx="644" cy="538" r="10" fill="#FC945A"/>
<circle cx="675" cy="479" r="10" fill="#F9F24B" fill-opacity="0.8"/>
<circle cx="611" cy="479" r="10" fill="#4BA6F9"/>
<circle cx="644" cy="202" r="10" fill="#50EB85"/>
<circle cx="390" cy="207" r="10" fill="#FBF56F"/>
<circle cx="361" cy="237" r="10" fill="#4BA6F9"/>
<circle cx="644" cy="509" r="10" fill="#F686B5"/>
<circle cx="644" cy="479" r="10" fill="#1CE561" fill-opacity="0.77"/>
<circle cx="390" cy="479" r="10" fill="#F686B5"/>
<circle cx="390" cy="237" r="10" fill="#FB7428" fill-opacity="0.77"/>
</svg>
